<svg width="455" height="454" xmlns="http://www.w3.org/2000/svg" xmlns:xlink="http://www.w3.org/1999/xlink" overflow="hidden"><defs><clipPath id="clip0"><rect x="415" y="113" width="455" height="454"/></clipPath></defs><g clip-path="url(#clip0)" transform="translate(-415 -113)"><path d="M416 340C416 214.631 517.407 113 642.5 113 767.592 113 869 214.631 869 340 869 465.369 767.592 567 642.5 567 517.407 567 416 465.369 416 340Z" fill="#FFFFFF" fill-rule="evenodd"/><path d="M663.728 226.374 797.355 360 663.728 493.627 530.102 360Z" fill="#D8BEE9" fill-rule="evenodd"/><path d="M664 360 797 360 664 494Z" fill="#F36274" fill-rule="evenodd"/><path d="M0 134 0 0 134 134Z" fill="#2C2A29" fill-rule="evenodd" transform="matrix(1.83697e-16 1 1 -1.83697e-16 530 360)"/><path d="M597.04 293.062 530.102 360 529.853 225.875Z" fill="#F8E5EE" fill-rule="evenodd"/><path d="M0 94.6648 0 0 95.0164 94.6648Z" fill="#347691" fill-rule="evenodd" transform="matrix(-0.707107 -0.707107 -0.707107 0.707107 663.812 226.799)"/></g></svg>