<svg width="455" height="455" xmlns="http://www.w3.org/2000/svg" xmlns:xlink="http://www.w3.org/1999/xlink" overflow="hidden"><defs><clipPath id="clip0"><rect x="413" y="133" width="455" height="455"/></clipPath></defs><g clip-path="url(#clip0)" transform="translate(-413 -133)"><path d="M413 360C413 234.631 514.631 133 640 133 765.369 133 867 234.631 867 360 867 485.369 765.369 587 640 587 514.631 587 413 485.369 413 360Z" fill="#FFFFFF" fill-rule="evenodd"/><path d="M639.912 251.846 773.539 385.472 639.912 519.099 506.286 385.472Z" fill="#D8BEE9" fill-rule="evenodd"/><path d="M640 385 774 385 640 519Z" fill="#F36274" fill-rule="evenodd"/><path d="M0 134 0 0 134 134Z" fill="#2C2A29" fill-rule="evenodd" transform="matrix(1.83697e-16 1 1 -1.83697e-16 506 385)"/><path d="M573.224 318.534 506.286 385.472 506.037 251.347Z" fill="#F8E5EE" fill-rule="evenodd"/><path d="M0 94.6648 0 0 95.0164 94.6648Z" fill="#347691" fill-rule="evenodd" transform="matrix(0.707107 -0.707107 -0.707107 -0.707107 773.539 385.556)"/></g></svg>