<?xml version="1.0" encoding="utf-8"?>
<!-- Generator: Adobe Illustrator 24.0.1, SVG Export Plug-In . SVG Version: 6.00 Build 0)  -->
<svg version="1.1" id="레이어_1" xmlns="http://www.w3.org/2000/svg" xmlns:xlink="http://www.w3.org/1999/xlink" x="0px"
	 y="0px" viewBox="0 0 1672.3 385.3" style="enable-background:new 0 0 1672.3 385.3;" xml:space="preserve">
<style type="text/css">
	.st0{fill:#FFFFFF;}
	.st1{fill:#FF5765;}
</style>
<path class="st0" d="M1405.1,369.1c-36.2-0.4-72.2-2.4-107.2-12.8c-21.6-6.4-41.7-15.6-57.9-32c-15.4-15.6-23.1-34.7-24.4-56.3
	c-1.8-29.6,5.9-57.4,17-84.2c19.7-47.4,45.3-91.4,78.8-130.5c13.8-16.1,29.4-30.4,48.1-40.7c30.1-16.7,60.3-16.8,90.4-0.2
	c22.1,12.2,39.9,29.4,55.3,49c35.6,45.3,64.2,94.5,81.5,149.7c6.4,20.3,9.5,41.1,6.9,62.5c-3.2,27.3-16.7,48.3-39.3,63.6
	c-20.5,13.8-43.7,20.7-67.7,25.2C1459.6,367.5,1432.4,368.8,1405.1,369.1z"/>
<path class="st0" d="M1643.7,385.3c-15.7,0-28.5-12.9-28.4-28.7c0.1-15.7,13.1-28.4,28.8-28.2c15.5,0.2,28.1,12.9,28.1,28.4
	C1672.3,372.6,1659.4,385.3,1643.7,385.3z"/>
<path class="st0" d="M594.9,369.1c-36.2-0.4-72.2-2.4-107.2-12.8c-21.6-6.4-41.7-15.6-57.9-32c-15.4-15.6-23.1-34.7-24.4-56.3
	c-1.8-29.6,5.9-57.4,17-84.2c19.7-47.4,45.3-91.4,78.8-130.5c13.8-16.1,29.4-30.4,48.1-40.7c30.1-16.7,60.3-16.8,90.4-0.2
	c22.1,12.2,39.9,29.4,55.3,49c35.6,45.3,64.2,94.5,81.5,149.7c6.4,20.3,9.5,41.1,6.9,62.5c-3.2,27.3-16.7,48.3-39.3,63.6
	c-20.5,13.8-43.7,20.7-67.7,25.2C649.5,367.5,622.2,368.8,594.9,369.1z"/>
<path class="st1" d="M999.5,0c36.2,0.4,72.2,2.4,107.2,12.8c21.6,6.4,41.7,15.6,57.9,32c15.4,15.6,23.1,34.7,24.4,56.3
	c1.8,29.6-5.9,57.4-17,84.2c-19.7,47.4-45.3,91.4-78.8,130.5c-13.8,16.1-29.4,30.4-48.1,40.7c-30.1,16.7-60.3,16.8-90.4,0.2
	c-22.1-12.2-39.9-29.4-55.3-49c-35.6-45.3-64.2-94.5-81.5-149.7c-6.4-20.3-9.5-41.1-6.9-62.5c3.2-27.3,16.7-48.3,39.3-63.6
	C870.8,18.1,894,11.3,918,6.7C945,1.6,972.2,0.3,999.5,0z"/>
<path class="st0" d="M189.4,0c36.2,0.4,72.2,2.4,107.2,12.8c21.6,6.4,41.7,15.6,57.9,32c15.4,15.6,23.1,34.7,24.4,56.3
	c1.8,29.6-5.9,57.4-17,84.2c-19.7,47.4-45.3,91.4-78.8,130.5c-13.8,16.1-29.4,30.4-48.1,40.7c-30.1,16.7-60.3,16.8-90.4,0.2
	c-22.1-12.2-39.9-29.4-55.3-49C53.7,262.4,25.1,213.2,7.8,158c-6.4-20.3-9.5-41.1-6.9-62.5C4.1,68.2,17.6,47.2,40.2,32
	c20.5-13.8,43.7-20.7,67.7-25.2C134.9,1.6,162.1,0.3,189.4,0z"/>
</svg>
